<svg xmlns="http://www.w3.org/2000/svg" viewBox="0 0 100 100" width="100" height="100">
  <defs>
    <radialGradient id="pupilGlow" cx="50%" cy="50%" r="50%">
      <stop offset="0%"   stop-color="#d1fae5"/>
      <stop offset="35%"  stop-color="#34d399"/>
      <stop offset="100%" stop-color="#059669"/>
    </radialGradient>
    <radialGradient id="irisGrad" cx="50%" cy="50%" r="50%">
      <stop offset="0%"   stop-color="#1e1b4b"/>
      <stop offset="100%" stop-color="#080c15"/>
    </radialGradient>
    <radialGradient id="bgGrad" cx="50%" cy="50%" r="70%">
      <stop offset="0%"   stop-color="#0d1117"/>
      <stop offset="100%" stop-color="#060a12"/>
    </radialGradient>
    <filter id="glow">
      <feGaussianBlur stdDeviation="1.5" result="blur"/>
      <feMerge><feMergeNode in="blur"/><feMergeNode in="SourceGraphic"/></feMerge>
    </filter>
    <filter id="emeraldGlow">
      <feGaussianBlur stdDeviation="2.8" result="blur"/>
      <feMerge><feMergeNode in="blur"/><feMergeNode in="SourceGraphic"/></feMerge>
    </filter>
    <filter id="eyeGlow">
      <feGaussianBlur stdDeviation="2" result="blur"/>
      <feMerge><feMergeNode in="blur"/><feMergeNode in="SourceGraphic"/></feMerge>
    </filter>
    <clipPath id="irisClip">
      <circle cx="50" cy="50" r="18.5"/>
    </clipPath>
  </defs>
  <rect width="100" height="100" rx="20" fill="url(#bgGrad)"/>
  <path d="M15,50 C20,34 34,21 50,21 C66,21 80,34 85,50 C80,66 66,79 50,79 C34,79 20,66 15,50 Z"
        fill="none" stroke="#4338ca" stroke-width="5" opacity="0.12" filter="url(#eyeGlow)"/>
  <path d="M15,50 C20,34 34,21 50,21 C66,21 80,34 85,50 C80,66 66,79 50,79 C34,79 20,66 15,50 Z"
        fill="#080c15" stroke="#4338ca" stroke-width="1.2" opacity="0.9"/>
  <circle cx="50" cy="50" r="18.5" fill="url(#irisGrad)"/>
  <circle cx="50" cy="50" r="18.5" fill="none" stroke="#4338ca" stroke-width="1.1"/>
  <g clip-path="url(#irisClip)" opacity="0.7">
    <line x1="31.5" y1="44" x2="68.5" y2="44" stroke="#4338ca" stroke-width="0.55"/>
    <line x1="31.5" y1="56" x2="68.5" y2="56" stroke="#4338ca" stroke-width="0.55"/>
    <line x1="38"   y1="42.3" x2="38"   y2="45.7" stroke="#818cf8" stroke-width="0.9"/>
    <line x1="50"   y1="42.3" x2="50"   y2="45.7" stroke="#818cf8" stroke-width="0.9"/>
    <line x1="62"   y1="42.3" x2="62"   y2="45.7" stroke="#818cf8" stroke-width="0.9"/>
    <line x1="38"   y1="54.3" x2="38"   y2="57.7" stroke="#818cf8" stroke-width="0.9"/>
    <line x1="50"   y1="54.3" x2="50"   y2="57.7" stroke="#818cf8" stroke-width="0.9"/>
    <line x1="62"   y1="54.3" x2="62"   y2="57.7" stroke="#818cf8" stroke-width="0.9"/>
    <line x1="50" y1="33" x2="50" y2="67" stroke="#312e81" stroke-width="0.4" opacity="0.5"/>
  </g>
  <circle cx="50" cy="50" r="14.5" fill="none" stroke="#4f46e5"
          stroke-width="0.65" stroke-dasharray="4 2.2" opacity="0.75"/>
  <circle cx="50" cy="50" r="9.5"  fill="none" stroke="#6366f1" stroke-width="0.6" opacity="0.55"/>
  <circle cx="31.5" cy="44" r="1.5" fill="#6366f1" filter="url(#glow)"/>
  <circle cx="68.5" cy="44" r="1.5" fill="#6366f1" filter="url(#glow)"/>
  <circle cx="31.5" cy="56" r="1.5" fill="#6366f1" filter="url(#glow)"/>
  <circle cx="68.5" cy="56" r="1.5" fill="#6366f1" filter="url(#glow)"/>
  <circle cx="50" cy="50" r="6.8" fill="#030712"/>
  <circle cx="50" cy="50" r="5.2" fill="url(#pupilGlow)" filter="url(#emeraldGlow)"/>
  <circle cx="50" cy="50" r="2.2" fill="#d1fae5"/>
  <ellipse cx="47.6" cy="47.6" rx="1.2" ry="0.8"
           fill="white" opacity="0.75" transform="rotate(-30 47.6 47.6)"/>
  <circle cx="15.5" cy="50" r="2" fill="#4f46e5" filter="url(#glow)" opacity="0.85"/>
  <circle cx="84.5" cy="50" r="2" fill="#4f46e5" filter="url(#glow)" opacity="0.85"/>
  <path d="M22,42 C32,28 68,28 78,42"
        fill="none" stroke="#a5b4fc" stroke-width="0.5" opacity="0.25"/>
</svg>
